<svg width="60" height="47" viewBox="0 0 60 47" fill="none" xmlns="http://www.w3.org/2000/svg">
<path fill-rule="evenodd" clip-rule="evenodd" d="M37.7517 0.512431H33.1437L37.4997 12.1404L34.3317 20.2764L27.0597 0.44043H21.7317L31.4368 24.7887L25.4223 41.2762L22.1823 33.1402L26.5743 21.5122H22.0023L19.0503 29.9722L16.1343 21.5122H11.5263L15.8823 33.1402L12.7143 41.2762L5.44226 21.4402H0.114258L10.3023 47.0002H14.5863L19.0503 36.2722L23.5503 47.0002H27.8343L36.9897 24.1117L40.6677 15.2724L45.1677 26.0004H49.4517L59.6757 0.44043H54.2757L47.0397 20.2764L43.7997 12.1404L48.1917 0.512431H43.6197L40.6677 8.97243L37.7517 0.512431Z" fill="white"/>
</svg>
